<svg xmlns="http://www.w3.org/2000/svg" viewBox="0 0 256 168.04"><defs><style>.cls-1{fill:#98a2b2;}</style></defs><title>Asset 1</title><g id="Layer_2" data-name="Layer 2"><g id="Layer_1-2" data-name="Layer 1"><path class="cls-1" d="M24,159.63a15.61,15.61,0,0,1,0-31.22,15.61,15.61,0,0,1,0,31.22Zm15.32,2c0,1.43,2.45,5.45,5.45,5.45h1.95a1.38,1.38,0,0,0,1.37-1.37V123h0a1.36,1.36,0,0,0-1.36-1.29h-6A1.37,1.37,0,0,0,39.37,123h0v3.47C35.67,121.89,29.85,120,24,120a24,24,0,0,0,0,48c5.83,0,12.19-2.27,15.34-6.43Zm23.16-6.12a22.18,22.18,0,0,0,12.63,4.14c4,0,8.18-2.08,8.18-5.71,0-4.84-9.06-5.59-14.75-7.53S58,140.46,58,134c0-9.9,8.82-14,17-14a25.69,25.69,0,0,1,14.1,4.19,1.39,1.39,0,0,1,.47,2l-3.34,4.76a1.37,1.37,0,0,1-2,.42,15.18,15.18,0,0,0-9.27-2.91c-5.59,0-8,2.32-8,5.19,0,3.45,3.94,4.54,8.54,5.71,8,2.17,16.79,4.77,16.79,14.61,0,8.73-8.16,14.12-17.18,14.12a28.87,28.87,0,0,1-17.53-5.53,1.47,1.47,0,0,1-.31-2l3.32-4.74A1.32,1.32,0,0,1,62.52,155.49Zm75,6.12c0,1.43,2.45,5.45,5.45,5.45h1.95a1.38,1.38,0,0,0,1.37-1.37V123h0a1.36,1.36,0,0,0-1.36-1.29h-6a1.36,1.36,0,0,0-1.36,1.29h0v3.47c-3.69-4.54-9.51-6.43-15.34-6.43a24,24,0,0,0,0,48c5.83,0,12.19-2.27,15.34-6.43Zm-15.32-2A15.61,15.61,0,1,1,137.46,144,15.45,15.45,0,0,1,122.19,159.63Zm78.06,3.45V141h0c0-12.46-7.86-20.87-20.4-20.87-6,0-10.88,3.46-12.61,6.44v0c0-3-2.45-4.76-5.45-4.76h-1.94a1.38,1.38,0,0,0-1.37,1.37v38.58h0v4.14h0a1.36,1.36,0,0,0,1.36,1.29h6l.27,0,.11,0,.14,0,.15-.08.07,0,.17-.13,0,0a1.46,1.46,0,0,0,.16-.19h0a1.36,1.36,0,0,0,.26-.72h0V140.63a12.12,12.12,0,1,1,24.24,0v21.1h0s0,0,0,.06v4.09h0a1.36,1.36,0,0,0,1.36,1.29h6l.27,0a.45.45,0,0,1,.11,0l.14-.05.14-.08.09,0,.16-.13,0,0,.15-.18h0a1.36,1.36,0,0,0,.26-.72h0v-2.79Zm47-1.47c0,1.43,2.45,5.45,5.45,5.45h1.95a1.38,1.38,0,0,0,1.37-1.37V123h0a1.36,1.36,0,0,0-1.36-1.29h-6a1.36,1.36,0,0,0-1.37,1.29h0v3.47c-3.69-4.54-9.51-6.43-15.34-6.43a24,24,0,1,0,0,48c5.83,0,12.19-2.27,15.34-6.43Zm-15.32-2A15.61,15.61,0,1,1,247.18,144,15.45,15.45,0,0,1,231.91,159.63Z"/><path class="cls-1" d="M155.73,47.36a21,21,0,1,0,21.05,21,21.05,21.05,0,0,0-21.05-21Zm-54.68,0a21,21,0,1,0,21,21,21,21,0,0,0-21-21Zm48.39-26.31A21.05,21.05,0,1,1,128.39,0a21.06,21.06,0,0,1,21.05,21.05Z"/></g></g></svg>