<?xml version="1.0" encoding="utf-8"?>
<!-- Generator: Adobe Illustrator 23.0.2, SVG Export Plug-In . SVG Version: 6.00 Build 0)  -->
<svg version="1.1" id="Layer_1" xmlns="http://www.w3.org/2000/svg" xmlns:xlink="http://www.w3.org/1999/xlink" x="0px" y="0px"
	 viewBox="0 0 393.6 56.7" style="enable-background:new 0 0 393.6 56.7;" xml:space="preserve">
<style type="text/css">
	.st0{fill-rule:evenodd;clip-rule:evenodd;fill:#FFFFFF;}
	.st1{fill-rule:evenodd;clip-rule:evenodd;fill:#8DC63F;}
	.st2{fill:#8DC63F;}
	.st3{fill-rule:evenodd;clip-rule:evenodd;fill:#7BA83D;}
</style>
<title>Asset 2</title>
<g>
	<g id="Layer_1-2">
		<path class="st0" d="M265,56.6c-6.3,0-11.1-1.7-14.3-5.2s-4.9-8.5-4.9-15.2c0-6.8,1.6-11.9,4.9-15.4s8-5.2,14.3-5.2
			c6.3,0,11,1.7,14.3,5.2s4.9,8.6,4.9,15.3c0,6.7-1.6,11.8-4.9,15.2S271.2,56.6,265,56.6z M265,49.2c1.6,0,3.1-0.2,4.6-0.7
			c1.2-0.4,2.2-1.2,3-2.2c0.8-1.2,1.4-2.6,1.7-4c0.4-2,0.6-4.1,0.5-6.1c0-2.1-0.2-4.1-0.6-6.1c-0.3-1.5-0.8-2.9-1.7-4.1
			c-0.8-1-1.8-1.8-3-2.3c-1.4-0.5-3-0.7-4.5-0.7c-1.5,0-3.1,0.2-4.5,0.7c-1.2,0.4-2.3,1.2-3.1,2.3c-0.9,1.2-1.5,2.6-1.7,4.1
			c-0.4,2-0.6,4.1-0.5,6.1c0,2.1,0.1,4.1,0.5,6.1c0.3,1.4,0.8,2.8,1.7,4c0.8,1,1.8,1.8,3,2.2C261.9,49,263.5,49.3,265,49.2z"/>
		<path class="st0" d="M210,16.5c3.9-0.5,7.9-0.8,11.9-0.8c3.1,0,6.2,0.2,9.3,0.8c2.3,0.4,4.4,1.3,6.4,2.6c1.6,1.1,2.9,2.7,3.7,4.5
			c0.8,2.1,1.2,4.3,1.2,6.5c0,4.9-1.7,8.5-5,10.9c-3.3,2.4-8.4,3.5-15.2,3.5h-1.5c-0.5,0-1,0-1.5-0.1v11.6H210V16.5z M223.7,37.4
			c1.5,0,3-0.1,4.4-0.4c1-0.2,2-0.6,2.9-1.2c0.7-0.6,1.3-1.4,1.6-2.2c0.3-1.1,0.5-2.3,0.5-3.4c0-1.2-0.1-2.3-0.5-3.4
			c-0.3-0.9-0.8-1.7-1.5-2.3c-0.8-0.6-1.8-1-2.8-1.2c-1.4-0.3-2.9-0.4-4.4-0.4c-0.8,0-1.6,0-2.5,0.1s-1.6,0.1-2.2,0.2v13.9
			c0.5,0.1,1.2,0.2,2.1,0.2S222.9,37.4,223.7,37.4L223.7,37.4z"/>
		<path class="st1" d="M54.8,42.8c-0.6,0-1.2,0.1-1.9,0.1s-1.3,0-2,0h-0.7h-0.9l-1,0h-0.7v13.3h-9.2V16.5c3.9-0.5,7.9-0.8,11.9-0.8
			c3.1,0,6.2,0.2,9.3,0.8c2.3,0.4,4.4,1.2,6.4,2.5c1.6,1,2.9,2.5,3.7,4.2c0.8,1.9,1.2,4.1,1.2,6.2c0,5.8-2.7,9.7-8,11.8l9.7,15H62.4
			L54.8,42.8L54.8,42.8z M52.1,35.8c1.5,0,3-0.1,4.4-0.3c1-0.1,2-0.5,2.9-1.1c0.7-0.5,1.3-1.2,1.6-2c0.4-1,0.5-2,0.5-3.1
			c0-1-0.1-2-0.5-3c-0.3-0.8-0.8-1.5-1.6-2c-0.9-0.6-1.8-0.9-2.8-1.1c-1.4-0.2-2.9-0.3-4.3-0.3c-0.7,0-1.5,0-2.4,0.1
			s-1.7,0.1-2.3,0.2v12.3c0.6,0.2,1.2,0.3,1.8,0.3C50.2,35.8,51.1,35.8,52.1,35.8L52.1,35.8z"/>
		<path class="st1" d="M15.6,56.6c-2.5,0-5.1-0.1-7.6-0.2c-2.5-0.1-5.2-0.3-8-0.6V16.5c2.8-0.3,5.3-0.5,7.6-0.6s4.6-0.2,6.8-0.2
			c6,0,10.3,0.9,13,2.7s4,4.6,4,8.5c0.1,2-0.5,4-1.7,5.6c-1.3,1.6-3.1,2.6-5.1,3v0.2c2.3,0.3,4.5,1.5,6.1,3.2c1.4,1.8,2.2,4,2.1,6.3
			c0,3.9-1.4,6.7-4.2,8.6S21.4,56.6,15.6,56.6z M15.5,50.1c5.3,0,8-1.9,8-5.7c0.1-1.6-0.5-3.2-1.8-4.2c-1.2-0.9-3.2-1.3-6-1.3h-7
			v10.8c0.3,0.1,0.7,0.1,1,0.2L11,50c0.5,0,1.1,0,1.8,0L15.5,50.1z M15.1,32.9c2.6,0,4.5-0.4,5.6-1.2c1.1-0.8,1.6-2.2,1.6-4.2
			s-0.6-3.3-1.7-4.1s-3-1.2-5.7-1.2c-1.2,0-2.3,0-3.3,0.1c-0.9,0-1.9,0.1-2.8,0.3v10.3H15.1z"/>
		<path class="st0" d="M379.8,16.2h0.7v7.2h-11.7v32.6h-9.2V28.6C366.6,25,373.4,20.8,379.8,16.2z"/>
		<path class="st0" d="M358.1,23.4h-10v-7.2h21.3C365.8,18.8,362,21.2,358.1,23.4z"/>
		<path class="st0" d="M315.3,44.4v11.7h-8.1V45.9C309.9,45.4,312.6,45,315.3,44.4z"/>
		<path class="st0" d="M335.1,34.3v-18h8v14.7C340.6,32.1,337.9,33.2,335.1,34.3z"/>
		<path class="st0" d="M332.9,39.8l1.8,2.6h0.5v-3.4c2.7-0.9,5.3-1.9,8-2.9v19.9h-7.4L325,42.1C327.6,41.4,330.2,40.7,332.9,39.8z"
			/>
		<path class="st0" d="M307.2,16.2h7.4l15.6,19.9c-2.6,0.9-5.1,1.8-7.8,2.7l-3.1-4l-3.5-4.9h-0.4v11.1c-2.7,0.8-5.4,1.5-8.1,2.2
			L307.2,16.2z"/>
		<path class="st0" d="M299.5,46.9v9.2h-9.2v-8.4C293.3,47.5,296.4,47.2,299.5,46.9z"/>
		<path class="st0" d="M290.2,16.2h9.2V45c-3,0.7-6.1,1.3-9.2,2V16.2z"/>
		<polygon class="st1" points="184.3,23.4 172.7,23.4 172.7,16.2 205.2,16.2 205.2,23.4 193.5,23.4 193.5,56.1 184.3,56.1 		"/>
		<polygon class="st1" points="131.7,16.2 140.9,16.2 140.9,32 158.6,32 158.6,16.2 167.8,16.2 167.8,56.1 158.6,56.1 158.6,39.2 
			140.9,39.2 140.9,56.1 131.7,56.1 		"/>
		<path class="st1" d="M112.3,56.7c-6.8,0-11.9-1.7-15.2-5.1c-3.3-3.4-4.9-8.5-4.9-15.5c0-6.9,1.7-12.1,5.2-15.5
			c3.4-3.4,8.7-5.1,15.8-5.1c1.9,0,3.9,0.1,5.8,0.4c1.9,0.2,3.7,0.5,5.5,0.9v7.4c-2.3-0.4-4.4-0.7-6.1-0.9c-1.5-0.2-3-0.3-4.6-0.3
			c-2,0-4,0.2-5.9,0.7c-1.4,0.4-2.8,1.1-3.8,2.2c-1,1.1-1.7,2.5-2,4c-0.4,2-0.6,4.1-0.6,6.2c0,2.1,0.1,4.1,0.5,6.1
			c0.3,1.5,0.9,2.8,1.8,4c0.9,1,2.1,1.8,3.4,2.2c1.7,0.5,3.5,0.7,5.2,0.7c0.5,0,1.2,0,1.9-0.1s1.4-0.1,2.1-0.2V35.8h8.4v19
			c-2.2,0.6-4.4,1-6.7,1.4C116.3,56.5,114.3,56.7,112.3,56.7z"/>
		<rect x="77" y="16.2" class="st2" width="9.2" height="39.8"/>
		<polygon class="st1" points="387.6,6 387.6,17.4 393.6,17.4 393.6,0 376.2,0 376.2,6 		"/>
		<polygon class="st3" points="393.6,0 379.2,6 387.6,6 387.6,13.8 		"/>
	</g>
</g>
</svg>
