<svg xmlns="http://www.w3.org/2000/svg" viewBox="0 0 393.63 56.72"><defs><style>.cls-1{fill:#1e344c;}.cls-1,.cls-2,.cls-4{fill-rule:evenodd;}.cls-2,.cls-3{fill:#8dc63f;}.cls-4{fill:#7ba83d;}</style></defs><title>Asset 2</title><g id="Layer_2" data-name="Layer 2"><g id="Layer_1-2" data-name="Layer 1"><path class="cls-1" d="M265,56.61q-9.42,0-14.32-5.17t-4.9-15.24q0-10.17,4.9-15.35T265,15.68q9.38,0,14.3,5.2t4.93,15.32q0,10.06-4.93,15.24T265,56.61Zm0-7.38a13.66,13.66,0,0,0,4.58-.67,6.42,6.42,0,0,0,3-2.21,10.21,10.21,0,0,0,1.7-4,29.43,29.43,0,0,0,.54-6.14,28,28,0,0,0-.57-6.11A10.53,10.53,0,0,0,272.58,26a6.72,6.72,0,0,0-3-2.26,13,13,0,0,0-4.5-.7,13.17,13.17,0,0,0-4.52.7A6.74,6.74,0,0,0,257.45,26a10,10,0,0,0-1.72,4.06,30,30,0,0,0-.54,6.14,29.43,29.43,0,0,0,.54,6.14,10.2,10.2,0,0,0,1.69,4,6.45,6.45,0,0,0,3.05,2.21A13.6,13.6,0,0,0,265,49.23Z"/><path class="cls-1" d="M210,16.49a94.42,94.42,0,0,1,11.9-.81,44.7,44.7,0,0,1,9.29.84,17.39,17.39,0,0,1,6.38,2.58,10.55,10.55,0,0,1,3.66,4.5,16.36,16.36,0,0,1,1.19,6.52q0,7.36-5,10.9t-15.22,3.53h-1.5c-.51,0-1,0-1.51-.06V56.07H210V16.49Zm13.68,20.9a22.17,22.17,0,0,0,4.44-.38A7.34,7.34,0,0,0,231,35.8a4.71,4.71,0,0,0,1.59-2.24,10.68,10.68,0,0,0,.48-3.44,10.92,10.92,0,0,0-.46-3.4,4.67,4.67,0,0,0-1.53-2.26,6.9,6.9,0,0,0-2.83-1.24,21.52,21.52,0,0,0-4.39-.37c-.75,0-1.58,0-2.47.1s-1.64.15-2.21.22V37.06c.54.07,1.23.15,2.07.22S222.93,37.39,223.69,37.39Z"/><path class="cls-2" d="M54.82,42.77c-.61,0-1.25.06-1.91.08s-1.34,0-2,0h-.65l-.91,0-.95-.05-.72,0v13.3H38.45V16.49a91.77,91.77,0,0,1,11.9-.81,47.5,47.5,0,0,1,9.26.79A17.58,17.58,0,0,1,66,18.92a10.16,10.16,0,0,1,3.69,4.22,14.61,14.61,0,0,1,1.18,6.17q0,8.72-8,11.79l9.69,15H62.36l-7.54-13.3Zm-2.69-7a25.35,25.35,0,0,0,4.44-.32,7.17,7.17,0,0,0,2.91-1.1,4.41,4.41,0,0,0,1.58-2,8.34,8.34,0,0,0,.49-3.07,8.64,8.64,0,0,0-.46-3,4.18,4.18,0,0,0-1.56-2,7.26,7.26,0,0,0-2.85-1.1,24.14,24.14,0,0,0-4.34-.32c-.68,0-1.48,0-2.4.1s-1.67.15-2.28.22V35.45a7.54,7.54,0,0,0,1.77.29C50.19,35.8,51.08,35.82,52.13,35.82Z"/><path class="cls-2" d="M15.62,56.61q-3.82,0-7.62-.19T0,55.8V16.49c2.76-.28,5.3-.49,7.59-.62s4.56-.19,6.79-.19q8.94,0,13,2.7t4,8.51a8.84,8.84,0,0,1-1.72,5.6,8.81,8.81,0,0,1-5.12,3v.22a10.06,10.06,0,0,1,6.06,3.2,9.41,9.41,0,0,1,2.08,6.33q0,5.8-4.18,8.59T15.62,56.61Zm-.11-6.52q8,0,8-5.65a4.81,4.81,0,0,0-1.8-4.2c-1.2-.86-3.21-1.29-6-1.29h-7V49.77a8.21,8.21,0,0,0,1,.16L11,50c.5,0,1.11.05,1.83.05Zm-.38-17.17q3.93,0,5.55-1.22c1.07-.8,1.61-2.19,1.61-4.17s-.56-3.31-1.69-4.12-3.05-1.21-5.74-1.21c-1.22,0-2.33,0-3.34.08a25.57,25.57,0,0,0-2.8.3V32.92Z"/><path class="cls-1" d="M379.83,16.22h.72v7.22H368.86V56.07h-9.21V28.64A174.7,174.7,0,0,0,379.83,16.22Z"/><path class="cls-1" d="M358.12,23.44h-10V16.22H369.4A130.08,130.08,0,0,1,358.12,23.44Z"/><path class="cls-1" d="M315.28,44.41V56.07h-8.07V45.86C309.91,45.44,312.6,45,315.28,44.41Z"/><path class="cls-1" d="M335.15,34.26v-18h8V30.94Q339.27,32.67,335.15,34.26Z"/><path class="cls-1" d="M332.86,39.84l1.81,2.61h.48V39.09q4-1.35,8-2.92v19.9H335.8L325,42.14Q328.94,41.09,332.86,39.84Z"/><path class="cls-1" d="M307.21,16.22h7.37l15.56,19.91q-3.83,1.38-7.79,2.65l-3.14-4-3.5-4.9h-.43V40.93q-4,1.14-8.07,2.21Z"/><path class="cls-1" d="M299.45,46.9v9.17h-9.21V47.71Q294.88,47.41,299.45,46.9Z"/><path class="cls-1" d="M290.24,16.22h9.21V45q-4.53,1-9.21,2Z"/><polygon class="cls-2" points="184.27 23.44 172.69 23.44 172.69 16.22 205.16 16.22 205.16 23.44 193.48 23.44 193.48 56.07 184.27 56.07 184.27 23.44"/><polygon class="cls-2" points="131.71 16.22 140.92 16.22 140.92 32.05 158.64 32.05 158.64 16.22 167.79 16.22 167.79 56.07 158.64 56.07 158.64 39.22 140.92 39.22 140.92 56.07 131.71 56.07 131.71 16.22"/><path class="cls-2" d="M112.27,56.72q-10.23,0-15.15-5.06T92.19,36.2q0-10.4,5.17-15.51t15.83-5.11a50.06,50.06,0,0,1,5.82.35,45.14,45.14,0,0,1,5.54.94v7.38c-2.33-.4-4.36-.69-6.08-.89a40.34,40.34,0,0,0-4.58-.3,21.76,21.76,0,0,0-5.87.68,8,8,0,0,0-3.8,2.2,8.86,8.86,0,0,0-2,4,27.85,27.85,0,0,0-.59,6.22,29.43,29.43,0,0,0,.54,6.14,9.14,9.14,0,0,0,1.83,4,7,7,0,0,0,3.39,2.18,18.09,18.09,0,0,0,5.23.65c.54,0,1.15,0,1.86-.06s1.4-.08,2.12-.16V35.82H125v19a66.32,66.32,0,0,1-6.68,1.4A39.94,39.94,0,0,1,112.27,56.72Z"/><rect class="cls-3" x="77" y="16.22" width="9.21" height="39.85"/><polygon class="cls-2" points="387.63 6 387.63 17.4 393.63 17.4 393.63 0 376.23 0 376.23 6 387.63 6"/><polygon class="cls-4" points="393.63 0 379.23 6 387.63 6 387.63 13.76 393.63 0"/></g></g></svg>