<svg xmlns="http://www.w3.org/2000/svg" viewBox="0 0 231.01 167.58"><defs><style>.cls-1{fill:#d6d1c4;}.cls-2{fill:#a9a89f;}.cls-3{fill:#adaba1;}.cls-4{fill:#9e3223;}.cls-5{fill:#e74f3d;}</style></defs><title>Asset 2</title><g id="Layer_2" data-name="Layer 2"><g id="Layer_1-2" data-name="Layer 1"><rect class="cls-1" width="231.01" height="167.58" rx="15.14"/><path class="cls-2" d="M231,19.81V152.44a15.14,15.14,0,0,1-15.14,15.14H197.49l-84.41-61.65Z"/><polygon class="cls-3" points="36.59 167.58 231.01 25.59 231.01 19.8 28.67 167.58 36.59 167.58"/><path class="cls-4" d="M231,15.14v137.3a14.77,14.77,0,0,1-.62,4.28,15.13,15.13,0,0,1-14.52,10.86H204.7V7.66l.72-.53L215.19,0h.68A15.14,15.14,0,0,1,231,15.14Z"/><path class="cls-5" d="M215.87,0h-.68l-9.77,7.13-.72.53L116.29,72.23l-90-65.72L17.4,0H15.14A15.14,15.14,0,0,0,0,15.14v137.3a14.77,14.77,0,0,0,.62,4.28,15.12,15.12,0,0,0,14.52,10.86H26.31v-125l65.3,47.7,21.47,15.67,4,2.9,24.68-18,63-46,.72-.53L231,25.59V15.14A15.14,15.14,0,0,0,215.87,0Z"/></g></g></svg>