<svg xmlns="http://www.w3.org/2000/svg" viewBox="0 0 180 44.62"><defs><style>.cls-1{fill:#98a2b2;fill-rule:evenodd;}</style></defs><title>Asset 1</title><g id="Layer_2" data-name="Layer 2"><g id="Layer_1-2" data-name="Layer 1"><path class="cls-1" d="M33.08,12.63a15.81,15.81,0,0,0-4.53-3.29,14.16,14.16,0,0,0-6-1.12,14.29,14.29,0,0,0-5.35,1,13.37,13.37,0,0,0-4.39,2.83,13.16,13.16,0,0,0-3,4.45,14.7,14.7,0,0,0-1.1,5.78,14.7,14.7,0,0,0,1.1,5.78,13,13,0,0,0,3,4.42,14,14,0,0,0,4.45,2.86,14.49,14.49,0,0,0,5.41,1A15.08,15.08,0,0,0,28,35.49,12.77,12.77,0,0,0,32,33.15a11,11,0,0,0,2-2.47,14.55,14.55,0,0,0,1.37-3.32H22.43v-7.3h21a15.47,15.47,0,0,1,.31,1.79,16.75,16.75,0,0,1,.12,2.1,23.54,23.54,0,0,1-1.28,7.92,18.51,18.51,0,0,1-3.86,6.36A20,20,0,0,1,31.84,43a23.73,23.73,0,0,1-9.2,1.67,22.85,22.85,0,0,1-16-6.33,22.41,22.41,0,0,1-4.87-7,21.63,21.63,0,0,1-1.8-9,22.22,22.22,0,0,1,1.8-8.95A21.28,21.28,0,0,1,6.67,6.3a22.15,22.15,0,0,1,7.21-4.63A23.14,23.14,0,0,1,22.64,0,22.65,22.65,0,0,1,32,1.83a21.43,21.43,0,0,1,7,5l-6,5.78Z"/><path class="cls-1" d="M87.05,32.23a11.17,11.17,0,0,1-4.11,9A15.71,15.71,0,0,1,72.8,44.62a15.08,15.08,0,0,1-9.37-3.1,15.83,15.83,0,0,1-5.6-8.47l5.23-2.16a13.78,13.78,0,0,0,1.5,3.47A10.68,10.68,0,0,0,66.78,37a10.43,10.43,0,0,0,2.83,1.74,8.63,8.63,0,0,0,3.28.63A9.34,9.34,0,0,0,79,37.44a6.3,6.3,0,0,0,2.38-5.15,6.19,6.19,0,0,0-2-4.59c-1.22-1.22-3.53-2.44-6.91-3.59S67,22,66.14,21.61c-4.54-2.31-6.79-5.69-6.79-10.2a10.39,10.39,0,0,1,3.74-8A13.8,13.8,0,0,1,72.47,0a14.26,14.26,0,0,1,8.46,2.5,11.85,11.85,0,0,1,4.78,6.14l-5.08,2.1a7.59,7.59,0,0,0-2.84-3.95A9.08,9.08,0,0,0,67.23,7,5.18,5.18,0,0,0,65,11.35a5,5,0,0,0,1.74,3.81c1.28,1.06,4,2.34,8.28,3.8s7.42,3.29,9.28,5.42a11.81,11.81,0,0,1,2.71,7.85Z"/><path class="cls-1" d="M117.45,43.65h-5.23v-4H112a10,10,0,0,1-3.83,3.59,11.21,11.21,0,0,1-5.39,1.43c-3.59,0-6.33-1-8.25-3.07s-2.89-5-2.89-8.74V14.43h5.48v18q.18,7.17,7.22,7.16A6.83,6.83,0,0,0,109.78,37,9.69,9.69,0,0,0,112,30.59V14.43h5.48V43.65Z"/><path class="cls-1" d="M130,4.35a3.71,3.71,0,0,1-1.12,2.74,3.89,3.89,0,0,1-5.48,0,3.72,3.72,0,0,1-1.13-2.74,3.74,3.74,0,0,1,1.13-2.74,3.91,3.91,0,0,1,5.48,0A3.73,3.73,0,0,1,130,4.35Zm-1.12,10.08V43.65h-5.48V14.43Z"/><path class="cls-1" d="M145.67,44.13a8.43,8.43,0,0,1-5.94-2.19,8.11,8.11,0,0,1-2.4-6.15V19.45h-5.15v-5h5.12V5.48h5.48v9h7.15v5h-7.15V34c0,2,.36,3.25,1.12,4a3.69,3.69,0,0,0,2.56,1,6.21,6.21,0,0,0,1.28-.15,6.48,6.48,0,0,0,1.15-.4l1.74,4.9a14.06,14.06,0,0,1-5,.79Z"/><path class="cls-1" d="M166.18,44.59a14,14,0,0,1-10.62-4.41A15.67,15.67,0,0,1,151.39,29a15.79,15.79,0,0,1,4.05-11.11,14.57,14.57,0,0,1,20.72-.25Q180,21.88,180,29.46l-.06.61H157A9.51,9.51,0,0,0,159.85,37a9.22,9.22,0,0,0,6.58,2.62q5.25,0,8.21-5.24l4.9,2.38a14.71,14.71,0,0,1-5.44,5.78,15.47,15.47,0,0,1-7.92,2.07Zm-8.76-19.08h16.77a7.32,7.32,0,0,0-2.47-5.06,8.64,8.64,0,0,0-6-2,7.9,7.9,0,0,0-5.33,1.92,9.24,9.24,0,0,0-3,5.15Z"/></g></g></svg>