<svg xmlns="http://www.w3.org/2000/svg" viewBox="0 0 1565 379.39"><defs><style>.cls-1{fill:#373e4c;}</style></defs><title>Asset 1</title><g id="Layer_2" data-name="Layer 2"><g id="Layer_1-2" data-name="Layer 1"><path class="cls-1" d="M172.39,0h27.74C251,4.74,299.25,33.05,326.33,76.64c39.12,59.52,33.71,144.55-13.8,197.85-13.19,15.37-40.17,11.48-48.23-7.16C251,238.26,240.44,208,227.92,178.55,216.06,207,205.54,236,193.25,264.25c-5.36,15.08-23.52,24.8-38.6,17.83-11.43-4.27-16.79-16-21.1-26.46-16.89-42.54-34.2-84.94-51.32-127.43,13.85-.05,27.7,0,41.59-.05,13.85,34.19,27.61,68.48,41.55,102.63,10.43-25.66,20.63-51.41,30.82-77.16,4.6-11.57,10.63-24.57,23.57-28.5,14.28-5.36,29.74,4.79,35.15,18,13.7,31,25.13,63,38.46,94.18,13.46-22.95,21.95-49.18,20.48-76.07C312.43,102.1,264.53,48.23,206,40.07,136.3,29.55,65.35,77.3,45.29,144.17,25.61,203.36,48,272.69,97.79,310c36,29,85.46,38.32,129.75,25.47,0,13.23-.09,26.46,0,39.65-8.3,1.47-16.55,3-24.85,4.31H174.28c-47.75-4.55-93.94-26.32-125.72-62.6C20.3,285.92,4.41,245.37,0,204V176.85c3.89-41.93,20.06-83,48.61-114.34C80,26.7,125.44,5.26,172.39,0Z"/><path class="cls-1" d="M683.15,61.75q18.92-.07,37.94,0c0,40.12-.05,80.29,0,120.45,18.69-18,37.28-36.09,56-54.06,14.47.05,28.88,0,43.35.05q-28,27.74-56,55.44c20.58,32.06,41.31,64.07,61.89,96.13-14.89,0-29.78,0-44.72,0Q760,244.23,738.44,208.67c-5.69,5.45-11.47,10.86-17.21,16.31q-.21,27.39-.14,54.78H683.15Q683.08,170.77,683.15,61.75Z"/><path class="cls-1" d="M1029.25,62.08h37.8V279.8h-37.8Q1029.25,170.9,1029.25,62.08Z"/><path class="cls-1" d="M428.81,126.15c39.79-13.38,88.07,8.72,100.4,49.65,15.6,42.3-10.44,95.32-55.49,104.71-40.55,11.2-86.79-14.27-96.79-55.58C364.88,185.1,388.07,137.67,428.81,126.15Zm8.68,32.2c-37.75,16.55-33.2,83.47,8.63,91.2,33.05,7.44,57.34-30.5,48.18-59.9C490.27,164.32,461.3,147.2,437.49,158.35Z"/><path class="cls-1" d="M602.1,142.7a66.68,66.68,0,0,1,61.55-15.94c-2.46,11.81-5,23.62-7.54,35.43-20.15-6.54-46.19,1-52.92,22.76-2.47,31.49-.33,63.22-1,94.81H564.4q-.07-75.76.09-151.43c12.52,0,25.09-.05,37.61-.05Z"/><path class="cls-1" d="M881.85,142.08c23.48-22.43,64.22-25.75,88.78-3.36,35.14,33.24,33.86,98.59-5.55,128.18-23.76,18.45-56.62,19.5-83.56,7.59.33,22.34.38,44.63.57,67H844.44q0-106.69-.1-213.36c11.9,0,23.81,0,35.71,0C880.48,131.6,881.38,138.62,881.85,142.08Zm25.28,16.32c-32.29,13.94-26.7,54.2-24.28,82.56,18.4,10.82,45.34,12.19,61.32-3.79,16.12-15.79,16.83-41.64,8.68-61.46C945.45,158.73,923.78,152,907.13,158.4Z"/><path class="cls-1" d="M1105.65,143c23.9-18.3,56.1-23.47,85.13-17.12,22.76,4.79,41.73,25.14,41.92,48.9.9,35,0,70,.33,105-11,0-22.15,0-33.15,0-.57-3.55-1.66-10.67-2.23-14.27-21.53,19.63-56.76,26.27-80.43,6.64-24.76-19.59-21.63-63,4.84-79.67,22.57-15.09,50.93-11,76.49-10.49-2.51-7.87-3.89-17.59-12.09-21.81-20.3-10.91-44.72-3.89-63.26,7.44C1117.27,159.49,1111.53,151.24,1105.65,143ZM1151,211.94c-14.66,5.26-20.68,28.07-6.55,37.27,25.42,14.8,63-8.06,55.68-38.65C1183.85,209.62,1166.68,206,1151,211.94Z"/><path class="cls-1" d="M1281.92,148.2c29.22-33.53,86.84-33.2,117.57-1.8-7.35,7.87-14.51,15.89-21.77,23.76-14.75-11.67-34.76-19.49-53.16-11.57-35.24,15.13-33.67,75.54,2.61,88.63,18.21,7.78,36.94-2.46,51.55-12.94,6.83,7.92,13.51,16,20.44,23.94-17.93,16.56-42,28.84-66.92,25.42-21.86-3.27-44.39-13.08-56.91-32.15C1255.27,220.62,1256.93,175.94,1281.92,148.2Z"/><path class="cls-1" d="M1437.24,142.75c22-21.44,57-24,84.84-14.14,29.83,12.86,41.83,46.91,42.92,77.21v7.64c-38.37.19-76.73-.57-115.1.47,4.17,12.14,9.63,25.23,22.1,30.87,23.62,12.62,51.65,2.75,72.13-11.43,6.5,7.78,13,15.47,19.54,23.2-28.5,25.27-72.46,37.13-107.46,18.3C1407.17,252.77,1398.92,178.41,1437.24,142.75Zm12.61,41.92c26.13.33,52.31.47,78.49-.14-3.51-8.78-6.78-18.64-15.22-24.05C1490.83,145.83,1454.83,156.83,1449.85,184.67Z"/></g></g></svg>